<svg width="1180" height="400" viewBox="0 0 1180 400" fill="none" xmlns="http://www.w3.org/2000/svg">
<g clip-path="url(#clip0_96_12)">
<path d="M119.959 373C87.2923 373 59.959 358.833 37.959 330.5C16.2923 301.833 5.45899 258.5 5.45899 200.5C5.45899 142.167 17.2923 94.6667 40.959 58C64.959 21.3333 93.1257 2.99998 125.459 2.99998C157.792 2.99998 184.626 17.3333 205.959 46C227.626 74.6667 238.459 118.333 238.459 177C238.459 235.667 225.126 284.5 198.459 323.5C211.126 340.5 227.459 357.667 247.459 375L182.959 399C171.626 385 162.626 373 155.959 363C143.626 369.667 131.626 373 119.959 373ZM125.959 62.5C111.292 62.5 98.6257 75.5 87.959 101.5C77.2923 127.167 71.959 159.667 71.959 199C71.959 238 76.459 267 85.459 286C94.7923 304.667 106.292 314 119.959 314C121.626 314 123.792 313.667 126.459 313C119.459 298 114.459 283 111.459 268L157.459 271.5C167.126 244.167 171.959 211.833 171.959 174.5C171.959 137.167 167.459 109.167 158.459 90.5C149.792 71.8333 138.959 62.5 125.959 62.5ZM438.201 121.5L437.201 200.5C437.201 274.833 438.535 329.5 441.201 364.5L391.701 359.5C390.701 345.5 388.535 331.333 385.201 317C366.868 344 348.368 357.5 329.701 357.5C311.368 357.5 296.701 351.167 285.701 338.5C274.701 325.833 269.201 308.333 269.201 286C269.201 242.667 272.368 191 278.701 131L336.701 136.5C330.701 193.5 327.701 240.833 327.701 278.5C327.701 295.5 333.035 304 343.701 304C348.701 304 354.701 297.167 361.701 283.5C369.035 269.833 374.868 253.333 379.201 234C378.868 226.667 378.701 218 378.701 208C378.701 198 379.201 167.5 380.201 116.5L438.201 121.5ZM482.162 208.5C487.162 182.5 496.662 160.5 510.662 142.5C524.662 124.167 542.995 115 565.662 115C588.329 115 604.995 124.5 615.662 143.5C626.662 162.167 632.162 188.833 632.162 223.5C632.162 258.167 630.162 306 626.162 367L584.162 363.5L580.162 347.5C564.495 356.5 548.495 361 532.162 361C515.829 361 502.329 355.667 491.662 345C480.995 334 475.662 318.333 475.662 298C475.662 277.667 485.662 260.167 505.662 245.5C525.995 230.833 549.329 223.167 575.662 222.5V209C575.662 182.667 569.329 169.5 556.662 169.5C550.329 169.5 544.495 174 539.162 183C534.162 191.667 530.495 201.667 528.162 213L482.162 208.5ZM526.662 301C526.662 311.667 532.995 317 545.662 317C554.329 317 563.495 315 573.162 311L574.162 269C558.495 270.333 546.662 274.333 538.662 281C530.662 287.333 526.662 294 526.662 301ZM772.486 198.5C772.486 178.5 767.486 168.5 757.486 168.5C752.486 168.5 747.82 171 743.486 176C739.486 180.667 737.486 187.167 737.486 195.5C737.486 203.5 738.986 210.167 741.986 215.5C745.32 220.833 751.153 226.167 759.486 231.5C768.153 236.5 774.82 240.667 779.486 244C784.486 247 790.32 251.333 796.986 257C810.653 269 817.486 284.5 817.486 303.5C817.486 322.167 810.32 337.333 795.986 349C781.986 360.667 766.153 366.5 748.486 366.5C730.82 366.5 714.82 361.833 700.486 352.5C686.486 342.833 675.153 330.833 666.486 316.5L693.486 286C706.82 309 720.82 320.5 735.486 320.5C740.486 320.5 744.82 319.167 748.486 316.5C752.153 313.5 753.986 309.5 753.986 304.5C753.986 293.833 746.32 284 730.986 275C714.653 266 701.82 256 692.486 245C683.153 234 678.486 218.5 678.486 198.5C678.486 178.167 686.82 160 703.486 144C720.153 127.667 737.986 119.5 756.986 119.5C776.32 119.5 791.486 126.167 802.486 139.5C813.82 152.5 819.486 170.167 819.486 192.5C819.486 201.5 818.486 211.167 816.486 221.5L770.986 217.5C771.986 209.833 772.486 203.5 772.486 198.5ZM850.326 208.5C855.326 182.5 864.826 160.5 878.826 142.5C892.826 124.167 911.16 115 933.826 115C956.493 115 973.16 124.5 983.826 143.5C994.826 162.167 1000.33 188.833 1000.33 223.5C1000.33 258.167 998.326 306 994.326 367L952.326 363.5L948.326 347.5C932.66 356.5 916.66 361 900.326 361C883.993 361 870.493 355.667 859.826 345C849.16 334 843.826 318.333 843.826 298C843.826 277.667 853.826 260.167 873.826 245.5C894.16 230.833 917.493 223.167 943.826 222.5V209C943.826 182.667 937.493 169.5 924.826 169.5C918.493 169.5 912.66 174 907.326 183C902.326 191.667 898.66 201.667 896.326 213L850.326 208.5ZM894.826 301C894.826 311.667 901.16 317 913.826 317C922.493 317 931.66 315 941.326 311L942.326 269C926.66 270.333 914.826 274.333 906.826 281C898.826 287.333 894.826 294 894.826 301ZM1141.65 175.5C1127.65 175.5 1117.15 193.167 1110.15 228.5C1110.82 251.833 1111.15 274.167 1111.15 295.5C1111.15 316.833 1110.48 340.833 1109.15 367.5L1051.15 362.5C1052.15 313.5 1052.65 286.5 1052.65 281.5C1052.65 219.833 1049.65 172.667 1043.65 140L1081.15 144C1083.48 153.667 1086.15 162.167 1089.15 169.5C1105.48 134.5 1121.98 117 1138.65 117C1152.32 117 1164.32 123 1174.65 135L1161.65 181C1156.32 177.333 1149.65 175.5 1141.65 175.5Z" fill="white"/>
</g>
<defs>
<clipPath id="clip0_96_12">
<rect width="1180" height="400" fill="white"/>
</clipPath>
</defs>
</svg>
